<?xml version="1.0" encoding="UTF-8" standalone="no"?>
<!-- Created with Inkscape (http://www.inkscape.org/) -->

<svg
   xmlns:ns0="http://www.iki.fi/pav/software/textext/"
   xmlns:dc="http://purl.org/dc/elements/1.1/"
   xmlns:cc="http://creativecommons.org/ns#"
   xmlns:rdf="http://www.w3.org/1999/02/22-rdf-syntax-ns#"
   xmlns:svg="http://www.w3.org/2000/svg"
   xmlns="http://www.w3.org/2000/svg"
   xmlns:sodipodi="http://sodipodi.sourceforge.net/DTD/sodipodi-0.dtd"
   xmlns:inkscape="http://www.inkscape.org/namespaces/inkscape"
   inkscape:version="0.91 r13725"
   version="1.1"
   id="svg2"
   viewBox="0 0 930.77048 283.15882"
   height="79.913712mm"
   width="262.68411mm"
   sodipodi:docname="lda_mm_plate.svg">
  <sodipodi:namedview
     inkscape:window-maximized="1"
     inkscape:window-y="24"
     inkscape:window-x="43"
     inkscape:window-height="1056"
     inkscape:window-width="1877"
     showgrid="false"
     inkscape:current-layer="svg2"
     inkscape:document-units="px"
     inkscape:cy="178.06354"
     inkscape:cx="456.82478"
     inkscape:zoom="0.7"
     inkscape:pageshadow="2"
     inkscape:pageopacity="0.0"
     borderopacity="1.0"
     bordercolor="#666666"
     pagecolor="#ffffff"
     id="base"
     fit-margin-top="0"
     fit-margin-left="0"
     fit-margin-right="0"
     fit-margin-bottom="0"
     showguides="false" />
  <defs
     id="defs4">
    <marker
       inkscape:isstock="true"
       style="overflow:visible"
       id="marker5451"
       refX="0"
       refY="0"
       orient="auto"
       inkscape:stockid="Arrow2Mend">
      <path
         transform="scale(-0.6,-0.6)"
         d="M 8.7185878,4.0337352 -2.2072895,0.01601326 8.7185884,-4.0017078 c -1.7454984,2.3720609 -1.7354408,5.6174519 -6e-7,8.035443 z"
         style="fill:#000000;fill-opacity:1;fill-rule:evenodd;stroke:#000000;stroke-width:0.625;stroke-linejoin:round;stroke-opacity:1"
         id="path5453"
         inkscape:connector-curvature="0" />
    </marker>
    <marker
       inkscape:isstock="true"
       style="overflow:visible"
       id="marker5447"
       refX="0"
       refY="0"
       orient="auto"
       inkscape:stockid="Arrow2Mend">
      <path
         transform="scale(-0.6,-0.6)"
         d="M 8.7185878,4.0337352 -2.2072895,0.01601326 8.7185884,-4.0017078 c -1.7454984,2.3720609 -1.7354408,5.6174519 -6e-7,8.035443 z"
         style="fill:#000000;fill-opacity:1;fill-rule:evenodd;stroke:#000000;stroke-width:0.625;stroke-linejoin:round;stroke-opacity:1"
         id="path5449"
         inkscape:connector-curvature="0" />
    </marker>
    <marker
       inkscape:isstock="true"
       style="overflow:visible"
       id="marker5443"
       refX="0"
       refY="0"
       orient="auto"
       inkscape:stockid="Arrow2Mend">
      <path
         transform="scale(-0.6,-0.6)"
         d="M 8.7185878,4.0337352 -2.2072895,0.01601326 8.7185884,-4.0017078 c -1.7454984,2.3720609 -1.7354408,5.6174519 -6e-7,8.035443 z"
         style="fill:#000000;fill-opacity:1;fill-rule:evenodd;stroke:#000000;stroke-width:0.625;stroke-linejoin:round;stroke-opacity:1"
         id="path5445"
         inkscape:connector-curvature="0" />
    </marker>
    <marker
       inkscape:stockid="Arrow2Mend"
       orient="auto"
       refY="0"
       refX="0"
       id="Arrow2Mend"
       style="overflow:visible"
       inkscape:isstock="true"
       inkscape:collect="always">
      <path
         id="path5140"
         style="fill:#000000;fill-opacity:1;fill-rule:evenodd;stroke:#000000;stroke-width:0.625;stroke-linejoin:round;stroke-opacity:1"
         d="M 8.7185878,4.0337352 -2.2072895,0.01601326 8.7185884,-4.0017078 c -1.7454984,2.3720609 -1.7354408,5.6174519 -6e-7,8.035443 z"
         transform="scale(-0.6,-0.6)"
         inkscape:connector-curvature="0" />
    </marker>
    <marker
       inkscape:isstock="true"
       style="overflow:visible"
       id="marker5423"
       refX="0"
       refY="0"
       orient="auto"
       inkscape:stockid="Arrow2Lend">
      <path
         transform="matrix(-1.1,0,0,-1.1,-1.1,0)"
         d="M 8.7185878,4.0337352 -2.2072895,0.01601326 8.7185884,-4.0017078 c -1.7454984,2.3720609 -1.7354408,5.6174519 -6e-7,8.035443 z"
         style="fill:#000000;fill-opacity:1;fill-rule:evenodd;stroke:#000000;stroke-width:0.625;stroke-linejoin:round;stroke-opacity:1"
         id="path5425"
         inkscape:connector-curvature="0" />
    </marker>
    <marker
       inkscape:isstock="true"
       style="overflow:visible"
       id="marker5419"
       refX="0"
       refY="0"
       orient="auto"
       inkscape:stockid="Arrow2Lend">
      <path
         transform="matrix(-1.1,0,0,-1.1,-1.1,0)"
         d="M 8.7185878,4.0337352 -2.2072895,0.01601326 8.7185884,-4.0017078 c -1.7454984,2.3720609 -1.7354408,5.6174519 -6e-7,8.035443 z"
         style="fill:#000000;fill-opacity:1;fill-rule:evenodd;stroke:#000000;stroke-width:0.625;stroke-linejoin:round;stroke-opacity:1"
         id="path5421"
         inkscape:connector-curvature="0" />
    </marker>
    <marker
       inkscape:isstock="true"
       style="overflow:visible"
       id="marker5415"
       refX="0"
       refY="0"
       orient="auto"
       inkscape:stockid="Arrow2Lend">
      <path
         transform="matrix(-1.1,0,0,-1.1,-1.1,0)"
         d="M 8.7185878,4.0337352 -2.2072895,0.01601326 8.7185884,-4.0017078 c -1.7454984,2.3720609 -1.7354408,5.6174519 -6e-7,8.035443 z"
         style="fill:#000000;fill-opacity:1;fill-rule:evenodd;stroke:#000000;stroke-width:0.625;stroke-linejoin:round;stroke-opacity:1"
         id="path5417"
         inkscape:connector-curvature="0" />
    </marker>
    <marker
       inkscape:isstock="true"
       style="overflow:visible"
       id="marker5408"
       refX="0"
       refY="0"
       orient="auto"
       inkscape:stockid="Arrow2Mend">
      <path
         transform="scale(-0.6,-0.6)"
         d="M 8.7185878,4.0337352 -2.2072895,0.01601326 8.7185884,-4.0017078 c -1.7454984,2.3720609 -1.7354408,5.6174519 -6e-7,8.035443 z"
         style="fill:#000000;fill-opacity:1;fill-rule:evenodd;stroke:#000000;stroke-width:0.625;stroke-linejoin:round;stroke-opacity:1"
         id="path5410"
         inkscape:connector-curvature="0" />
    </marker>
    <marker
       inkscape:isstock="true"
       style="overflow:visible"
       id="marker5404"
       refX="0"
       refY="0"
       orient="auto"
       inkscape:stockid="Arrow2Mend">
      <path
         transform="scale(-0.6,-0.6)"
         d="M 8.7185878,4.0337352 -2.2072895,0.01601326 8.7185884,-4.0017078 c -1.7454984,2.3720609 -1.7354408,5.6174519 -6e-7,8.035443 z"
         style="fill:#000000;fill-opacity:1;fill-rule:evenodd;stroke:#000000;stroke-width:0.625;stroke-linejoin:round;stroke-opacity:1"
         id="path5406"
         inkscape:connector-curvature="0" />
    </marker>
    <marker
       inkscape:isstock="true"
       style="overflow:visible"
       id="marker5400"
       refX="0"
       refY="0"
       orient="auto"
       inkscape:stockid="Arrow2Mend">
      <path
         transform="scale(-0.6,-0.6)"
         d="M 8.7185878,4.0337352 -2.2072895,0.01601326 8.7185884,-4.0017078 c -1.7454984,2.3720609 -1.7354408,5.6174519 -6e-7,8.035443 z"
         style="fill:#000000;fill-opacity:1;fill-rule:evenodd;stroke:#000000;stroke-width:0.625;stroke-linejoin:round;stroke-opacity:1"
         id="path5402"
         inkscape:connector-curvature="0" />
    </marker>
    <marker
       inkscape:isstock="true"
       style="overflow:visible"
       id="marker5394"
       refX="0"
       refY="0"
       orient="auto"
       inkscape:stockid="Arrow1Lend">
      <path
         transform="matrix(-0.8,0,0,-0.8,-10,0)"
         style="fill:#000000;fill-opacity:1;fill-rule:evenodd;stroke:#000000;stroke-width:1pt;stroke-opacity:1"
         d="M 0,0 5,-5 -12.5,0 5,5 0,0 Z"
         id="path5396"
         inkscape:connector-curvature="0" />
    </marker>
    <marker
       inkscape:isstock="true"
       style="overflow:visible"
       id="marker5390"
       refX="0"
       refY="0"
       orient="auto"
       inkscape:stockid="Arrow1Lend">
      <path
         transform="matrix(-0.8,0,0,-0.8,-10,0)"
         style="fill:#000000;fill-opacity:1;fill-rule:evenodd;stroke:#000000;stroke-width:1pt;stroke-opacity:1"
         d="M 0,0 5,-5 -12.5,0 5,5 0,0 Z"
         id="path5392"
         inkscape:connector-curvature="0" />
    </marker>
    <marker
       inkscape:isstock="true"
       style="overflow:visible"
       id="marker5386"
       refX="0"
       refY="0"
       orient="auto"
       inkscape:stockid="Arrow1Lend">
      <path
         transform="matrix(-0.8,0,0,-0.8,-10,0)"
         style="fill:#000000;fill-opacity:1;fill-rule:evenodd;stroke:#000000;stroke-width:1pt;stroke-opacity:1"
         d="M 0,0 5,-5 -12.5,0 5,5 0,0 Z"
         id="path5388"
         inkscape:connector-curvature="0" />
    </marker>
    <marker
       inkscape:isstock="true"
       style="overflow:visible"
       id="marker5379"
       refX="0"
       refY="0"
       orient="auto"
       inkscape:stockid="Arrow2Lstart">
      <path
         transform="matrix(1.1,0,0,1.1,1.1,0)"
         d="M 8.7185878,4.0337352 -2.2072895,0.01601326 8.7185884,-4.0017078 c -1.7454984,2.3720609 -1.7354408,5.6174519 -6e-7,8.035443 z"
         style="fill:#000000;fill-opacity:1;fill-rule:evenodd;stroke:#000000;stroke-width:0.625;stroke-linejoin:round;stroke-opacity:1"
         id="path5381"
         inkscape:connector-curvature="0" />
    </marker>
    <marker
       inkscape:isstock="true"
       style="overflow:visible"
       id="marker5375"
       refX="0"
       refY="0"
       orient="auto"
       inkscape:stockid="Arrow2Lstart">
      <path
         transform="matrix(1.1,0,0,1.1,1.1,0)"
         d="M 8.7185878,4.0337352 -2.2072895,0.01601326 8.7185884,-4.0017078 c -1.7454984,2.3720609 -1.7354408,5.6174519 -6e-7,8.035443 z"
         style="fill:#000000;fill-opacity:1;fill-rule:evenodd;stroke:#000000;stroke-width:0.625;stroke-linejoin:round;stroke-opacity:1"
         id="path5377"
         inkscape:connector-curvature="0" />
    </marker>
    <marker
       inkscape:isstock="true"
       style="overflow:visible"
       id="marker5371"
       refX="0"
       refY="0"
       orient="auto"
       inkscape:stockid="Arrow2Lstart">
      <path
         transform="matrix(1.1,0,0,1.1,1.1,0)"
         d="M 8.7185878,4.0337352 -2.2072895,0.01601326 8.7185884,-4.0017078 c -1.7454984,2.3720609 -1.7354408,5.6174519 -6e-7,8.035443 z"
         style="fill:#000000;fill-opacity:1;fill-rule:evenodd;stroke:#000000;stroke-width:0.625;stroke-linejoin:round;stroke-opacity:1"
         id="path5373"
         inkscape:connector-curvature="0" />
    </marker>
    <inkscape:perspective
       sodipodi:type="inkscape:persp3d"
       inkscape:vp_x="0 : 526.1811 : 1"
       inkscape:vp_y="0 : 999.99998 : 0"
       inkscape:vp_z="744.09446 : 526.1811 : 1"
       inkscape:persp3d-origin="372.04722 : 350.7874 : 1"
       id="perspective7720" />
    <marker
       inkscape:stockid="Arrow2Lend"
       orient="auto"
       refY="0"
       refX="0"
       id="Arrow2Lend"
       style="overflow:visible"
       inkscape:isstock="true">
      <path
         inkscape:connector-curvature="0"
         id="path4291"
         style="fill:#000000;fill-opacity:1;fill-rule:evenodd;stroke:#000000;stroke-width:0.625;stroke-linejoin:round;stroke-opacity:1"
         d="M 8.7185878,4.0337352 -2.2072895,0.01601326 8.7185884,-4.0017078 c -1.7454984,2.3720609 -1.7354408,5.6174519 -6e-7,8.035443 z"
         transform="matrix(-1.1,0,0,-1.1,-1.1,0)" />
    </marker>
    <marker
       inkscape:stockid="Arrow1Lend"
       orient="auto"
       refY="0"
       refX="0"
       id="marker4570"
       style="overflow:visible"
       inkscape:isstock="true">
      <path
         inkscape:connector-curvature="0"
         id="path4572"
         d="M 0,0 5,-5 -12.5,0 5,5 0,0 Z"
         style="fill:#000000;fill-opacity:1;fill-rule:evenodd;stroke:#000000;stroke-width:1pt;stroke-opacity:1"
         transform="matrix(-0.8,0,0,-0.8,-10,0)" />
    </marker>
    <marker
       inkscape:stockid="Arrow1Lend"
       orient="auto"
       refY="0"
       refX="0"
       id="Arrow1Lend"
       style="overflow:visible"
       inkscape:isstock="true">
      <path
         inkscape:connector-curvature="0"
         id="path4273"
         d="M 0,0 5,-5 -12.5,0 5,5 0,0 Z"
         style="fill:#000000;fill-opacity:1;fill-rule:evenodd;stroke:#000000;stroke-width:1pt;stroke-opacity:1"
         transform="matrix(-0.8,0,0,-0.8,-10,0)" />
    </marker>
    <marker
       inkscape:stockid="Arrow1Lend"
       orient="auto"
       refY="0"
       refX="0"
       id="Arrow1Lend-5"
       style="overflow:visible"
       inkscape:isstock="true">
      <path
         inkscape:connector-curvature="0"
         id="path4273-3"
         d="M 0,0 5,-5 -12.5,0 5,5 0,0 Z"
         style="fill:#4d4d4d;fill-opacity:1;fill-rule:evenodd;stroke:#000000;stroke-width:1pt;stroke-opacity:1"
         transform="matrix(-0.8,0,0,-0.8,-10,0)" />
    </marker>
    <marker
       inkscape:stockid="Arrow2Lend"
       orient="auto"
       refY="0"
       refX="0"
       id="Arrow2Lend-5"
       style="overflow:visible"
       inkscape:isstock="true">
      <path
         inkscape:connector-curvature="0"
         id="path4291-6"
         style="fill:#000000;fill-opacity:1;fill-rule:evenodd;stroke:#000000;stroke-width:0.625;stroke-linejoin:round;stroke-opacity:1"
         d="M 8.7185878,4.0337352 -2.2072895,0.01601326 8.7185884,-4.0017078 c -1.7454984,2.3720609 -1.7354408,5.6174519 -6e-7,8.035443 z"
         transform="matrix(-1.1,0,0,-1.1,-1.1,0)" />
    </marker>
    <marker
       inkscape:stockid="Arrow1Lend"
       orient="auto"
       refY="0"
       refX="0"
       id="Arrow1Lend-5-9"
       style="overflow:visible"
       inkscape:isstock="true">
      <path
         inkscape:connector-curvature="0"
         id="path4273-3-1"
         d="M 0,0 5,-5 -12.5,0 5,5 0,0 Z"
         style="fill:#4d4d4d;fill-opacity:1;fill-rule:evenodd;stroke:#000000;stroke-width:1pt;stroke-opacity:1"
         transform="matrix(-0.8,0,0,-0.8,-10,0)" />
    </marker>
    <marker
       inkscape:stockid="Arrow2Lend"
       orient="auto"
       refY="0"
       refX="0"
       id="Arrow2Lend-5-2"
       style="overflow:visible"
       inkscape:isstock="true">
      <path
         inkscape:connector-curvature="0"
         id="path4291-6-7"
         style="fill:#000000;fill-opacity:1;fill-rule:evenodd;stroke:#000000;stroke-width:0.625;stroke-linejoin:round;stroke-opacity:1"
         d="M 8.7185878,4.0337352 -2.2072895,0.01601326 8.7185884,-4.0017078 c -1.7454984,2.3720609 -1.7354408,5.6174519 -6e-7,8.035443 z"
         transform="matrix(-1.1,0,0,-1.1,-1.1,0)" />
    </marker>
    <marker
       inkscape:stockid="Arrow1Lend"
       orient="auto"
       refY="0"
       refX="0"
       id="Arrow1Lend-3"
       style="overflow:visible"
       inkscape:isstock="true">
      <path
         id="path4273-6"
         d="M 0,0 5,-5 -12.5,0 5,5 0,0 Z"
         style="fill:#4d4d4d;fill-opacity:1;fill-rule:evenodd;stroke:#000000;stroke-width:1pt;stroke-opacity:1"
         transform="matrix(-0.8,0,0,-0.8,-10,0)"
         inkscape:connector-curvature="0" />
    </marker>
    <marker
       inkscape:stockid="Arrow2Lend"
       orient="auto"
       refY="0"
       refX="0"
       id="Arrow2Lend-0"
       style="overflow:visible"
       inkscape:isstock="true">
      <path
         id="path4291-62"
         style="fill:#000000;fill-opacity:1;fill-rule:evenodd;stroke:#000000;stroke-width:0.625;stroke-linejoin:round;stroke-opacity:1"
         d="M 8.7185878,4.0337352 -2.2072895,0.01601326 8.7185884,-4.0017078 c -1.7454984,2.3720609 -1.7354408,5.6174519 -6e-7,8.035443 z"
         transform="matrix(-1.1,0,0,-1.1,-1.1,0)"
         inkscape:connector-curvature="0" />
    </marker>
    <marker
       inkscape:isstock="true"
       style="overflow:visible"
       id="marker5443-7"
       refX="0"
       refY="0"
       orient="auto"
       inkscape:stockid="Arrow2Mend">
      <path
         inkscape:connector-curvature="0"
         transform="scale(-0.6,-0.6)"
         d="M 8.7185878,4.0337352 -2.2072895,0.01601326 8.7185884,-4.0017078 c -1.7454984,2.3720609 -1.7354408,5.6174519 -6e-7,8.035443 z"
         style="fill:#000000;fill-opacity:1;fill-rule:evenodd;stroke:#000000;stroke-width:0.625;stroke-linejoin:round;stroke-opacity:1"
         id="path5445-5" />
    </marker>
    <marker
       inkscape:isstock="true"
       style="overflow:visible"
       id="marker5443-5"
       refX="0"
       refY="0"
       orient="auto"
       inkscape:stockid="Arrow2Mend">
      <path
         inkscape:connector-curvature="0"
         transform="scale(-0.6,-0.6)"
         d="M 8.7185878,4.0337352 -2.2072895,0.01601326 8.7185884,-4.0017078 c -1.7454984,2.3720609 -1.7354408,5.6174519 -6e-7,8.035443 z"
         style="fill:#000000;fill-opacity:1;fill-rule:evenodd;stroke:#000000;stroke-width:0.625;stroke-linejoin:round;stroke-opacity:1"
         id="path5445-6" />
    </marker>
    <marker
       inkscape:isstock="true"
       style="overflow:visible"
       id="marker5447-3"
       refX="0"
       refY="0"
       orient="auto"
       inkscape:stockid="Arrow2Mend">
      <path
         inkscape:connector-curvature="0"
         transform="scale(-0.6,-0.6)"
         d="M 8.7185878,4.0337352 -2.2072895,0.01601326 8.7185884,-4.0017078 c -1.7454984,2.3720609 -1.7354408,5.6174519 -6e-7,8.035443 z"
         style="fill:#000000;fill-opacity:1;fill-rule:evenodd;stroke:#000000;stroke-width:0.625;stroke-linejoin:round;stroke-opacity:1"
         id="path5449-6" />
    </marker>
    <marker
       inkscape:isstock="true"
       style="overflow:visible"
       id="marker5447-3-1"
       refX="0"
       refY="0"
       orient="auto"
       inkscape:stockid="Arrow2Mend">
      <path
         inkscape:connector-curvature="0"
         transform="scale(-0.6,-0.6)"
         d="M 8.7185878,4.0337352 -2.2072895,0.01601326 8.7185884,-4.0017078 c -1.7454984,2.3720609 -1.7354408,5.6174519 -6e-7,8.035443 z"
         style="fill:#000000;fill-opacity:1;fill-rule:evenodd;stroke:#000000;stroke-width:0.625;stroke-linejoin:round;stroke-opacity:1"
         id="path5449-6-8" />
    </marker>
    <marker
       inkscape:isstock="true"
       style="overflow:visible"
       id="marker5447-3-9"
       refX="0"
       refY="0"
       orient="auto"
       inkscape:stockid="Arrow2Mend">
      <path
         inkscape:connector-curvature="0"
         transform="scale(-0.6,-0.6)"
         d="M 8.7185878,4.0337352 -2.2072895,0.01601326 8.7185884,-4.0017078 c -1.7454984,2.3720609 -1.7354408,5.6174519 -6e-7,8.035443 z"
         style="fill:#000000;fill-opacity:1;fill-rule:evenodd;stroke:#000000;stroke-width:0.625;stroke-linejoin:round;stroke-opacity:1"
         id="path5449-6-2" />
    </marker>
  </defs>
  <metadata
     id="metadata7">
    <rdf:RDF>
      <cc:Work
         rdf:about="">
        <dc:format>image/svg+xml</dc:format>
        <dc:type
           rdf:resource="http://purl.org/dc/dcmitype/StillImage" />
        <dc:title></dc:title>
      </cc:Work>
    </rdf:RDF>
  </metadata>
  <g
     transform="translate(-111.29285,-297.05021)"
     inkscape:label="Layer 1"
     inkscape:groupmode="layer"
     id="layer1">
    <path
       d="m 1032.3276,556.37251 0.018,-0.0714 0.018,-0.0714 0.018,-0.067 0.018,-0.0625 0.018,-0.0625 0.018,-0.058 0.018,-0.0536 0.022,-0.0491 0.022,-0.0491 0.022,-0.0491 0.031,-0.0402 0.027,-0.0402 0.036,-0.0402 0.036,-0.0357 0.04,-0.0312 0.04,-0.0312 0.049,-0.0268 0.054,-0.0268 0.058,-0.0223 0.062,-0.0223 0.067,-0.0179 0.04,-0.009 0.036,-0.009 0.04,-0.009 0.04,-0.009 0.045,-0.004 0.045,-0.009 0.045,-0.004 0.049,-0.004 0.049,-0.009 0.054,-0.004 0.054,-0.004 0.054,0 0.058,-0.004 0.058,-0.004 0.062,-0.004 0.062,0 0.067,0 0.067,-0.004 0.071,0 0.071,0 0.076,0 0.076,0 c 0.5089,0 0.7143,0 0.7143,-0.44645 0,-0.24555 -0.2232,-0.24555 -0.6027,-0.24555 l -2.9377,0 c -0.5759,0 -0.5983,0 -0.8617,0.42413 l -8.121,12.6749 -1.7367,-12.58114 c -0.071,-0.51789 -0.1117,-0.51789 -0.692,-0.51789 l -3.0493,0 c -0.4152,0 -0.6608,0 -0.6608,0.42413 0,0.26787 0.1964,0.26787 0.6429,0.26787 0.2902,0 0.6875,0.0179 0.9554,0.0402 0.3527,0.0491 0.4867,0.11162 0.4867,0.35717 0,0.0893 -0.022,0.16072 -0.085,0.42413 l -2.8261,11.32215 c -0.2232,0.89291 -0.5983,1.60277 -2.4064,1.66528 -0.1116,0 -0.3974,0.0223 -0.3974,0.4286 0,0.19197 0.134,0.26341 0.317,0.26341 0.7099,0 1.4823,-0.0714 2.2189,-0.0714 0.759,0 1.5626,0.0714 2.2948,0.0714 0.1116,0 0.3973,0 0.3973,-0.44646 0,-0.24555 -0.2455,-0.24555 -0.3973,-0.24555 -1.2724,-0.0179 -1.5135,-0.46432 -1.5135,-0.97328 0,-0.15626 0.018,-0.26787 0.089,-0.50896 l 3.018,-12.12576 0.031,0 1.9109,13.79105 c 0.04,0.26341 0.062,0.50896 0.3348,0.50896 0.2411,0 0.3751,-0.24555 0.4867,-0.39735 l 8.9871,-14.08571 0.018,0 -3.1787,12.74634 c -0.2233,0.87059 -0.2679,1.04471 -2.0225,1.04471 -0.3795,0 -0.6206,0 -0.6206,0.4286 0,0.26341 0.2635,0.26341 0.3349,0.26341 0.6206,0 2.134,-0.0714 2.7546,-0.0714 0.9153,0 1.8707,0.0714 2.7814,0.0714 0.134,0 0.4197,0 0.4197,-0.44646 0,-0.24555 -0.2009,-0.24555 -0.6206,-0.24555 -0.8214,0 -1.442,0 -1.442,-0.39735 0,-0.0893 0,-0.12947 0.1116,-0.53575 z"
       id="path9096"
       inkscape:connector-curvature="0"
       style="font-style:normal;font-variant:normal;font-weight:normal;font-stretch:normal;letter-spacing:normal;word-spacing:normal;text-anchor:start;fill:#000000;fill-opacity:1;fill-rule:evenodd;stroke:#000000;stroke-width:0;stroke-linecap:butt;stroke-linejoin:miter;stroke-miterlimit:10.43299961;stroke-dasharray:none;stroke-dashoffset:0;stroke-opacity:1" />
    <path
       id="path9195"
       d="m 999.60564,531.27879 0.0447,-0.16518 0.0223,-0.0804 0.0268,-0.0759 0.0268,-0.0804 0.0313,-0.0759 0.0312,-0.0714 0.0357,-0.0714 0.0357,-0.0714 0.0402,-0.0714 0.0447,-0.067 0.0446,-0.0625 0.0536,-0.0625 0.054,-0.0625 0.058,-0.058 0.067,-0.0536 0.067,-0.0536 0.071,-0.0491 0.08,-0.0491 0.08,-0.0491 0.089,-0.0402 0.094,-0.0402 0.1027,-0.0402 0.1027,-0.0312 0.1161,-0.0312 0.1161,-0.0313 0.125,-0.0223 0.134,-0.0223 0.1384,-0.0179 0.1473,-0.0179 0.1563,-0.0134 0.08,-0.004 0.085,0 c 0.1116,0 0.375,-0.0223 0.375,-0.44645 0,-0.0223 0,-0.24555 -0.2857,-0.24555 -0.7412,0 -1.5136,0.0714 -2.24566,0.0714 -0.75898,0 -1.53581,-0.0714 -2.27693,-0.0714 -0.12947,0 -0.39734,0 -0.39734,0.44645 0,0.24555 0.22322,0.24555 0.39734,0.24555 1.2724,0.0179 1.51795,0.48664 1.51795,0.97328 0,0.0714 -0.0446,0.40627 -0.067,0.46878 l -2.48677,9.89794 -4.91995,-11.60787 c -0.18305,-0.40181 -0.20091,-0.42413 -0.70987,-0.42413 l -2.97786,0 c -0.44646,0 -0.65183,0 -0.65183,0.44645 0,0.24555 0.20537,0.24555 0.62058,0.24555 0.11161,0 1.51348,0 1.51348,0.20091 l -2.97786,11.94272 c -0.22323,0.89291 -0.59825,1.60277 -2.39747,1.66528 -0.14287,0 -0.38396,0.0223 -0.38396,0.44646 0,0.15626 0.11162,0.24555 0.2902,0.24555 0.71433,0 1.4867,-0.0714 2.22782,-0.0714 0.75451,0 1.55367,0.0714 2.28586,0.0714 0.11161,0 0.39734,0 0.39734,-0.44646 0,-0.22323 -0.19197,-0.24555 -0.43752,-0.24555 -1.29026,-0.0402 -1.47331,-0.52682 -1.47331,-0.97328 0,-0.15626 0.0223,-0.26787 0.0937,-0.50896 l 2.93322,-11.75074 c 0.0938,0.13394 0.0938,0.17412 0.20537,0.39735 l 5.53607,13.1035 c 0.15626,0.38396 0.21876,0.42414 0.41967,0.42414 0.24555,0 0.24555,-0.0714 0.35716,-0.46878 z"
       inkscape:connector-curvature="0"
       style="font-style:normal;font-variant:normal;font-weight:normal;font-stretch:normal;letter-spacing:normal;word-spacing:normal;text-anchor:start;fill:#000000;fill-opacity:1;fill-rule:evenodd;stroke:#000000;stroke-width:0;stroke-linecap:butt;stroke-linejoin:miter;stroke-miterlimit:10.43299961;stroke-dasharray:none;stroke-dashoffset:0;stroke-opacity:1" />
  </g>
  <ellipse
     style="fill:none;fill-opacity:1;stroke:#000000;stroke-width:2.87877774;stroke-miterlimit:4;stroke-dasharray:none;stroke-opacity:1"
     id="path3435"
     cx="37.383316"
     cy="180.13341"
     rx="35.943928"
     ry="34.23204" />
  <path
     style="fill:#000000;fill-rule:evenodd;stroke:#000000;stroke-width:2;stroke-linecap:butt;stroke-linejoin:miter;stroke-miterlimit:4;stroke-dasharray:none;stroke-opacity:1;marker-end:url(#marker5451)"
     d="m 73.885705,180.15263 91.964295,0"
     id="path4264"
     inkscape:connector-curvature="0"
     sodipodi:nodetypes="cc" />
  <g
     id="g8505"
     transform="matrix(0.79610396,0,0,0.79610396,291.25068,-45.083276)" />
  <path
     style="font-style:normal;font-variant:normal;font-weight:normal;font-stretch:normal;letter-spacing:normal;word-spacing:normal;text-anchor:start;fill:#000000;fill-opacity:1;fill-rule:evenodd;stroke:#000000;stroke-width:0;stroke-linecap:butt;stroke-linejoin:miter;stroke-miterlimit:10.43299961;stroke-dasharray:none;stroke-dashoffset:0;stroke-opacity:1"
     inkscape:connector-curvature="0"
     d="m 42.482465,231.26883 -0.0066,-0.2436 -0.0066,-0.23043 -0.01317,-0.23043 -0.01317,-0.22385 -0.0395,-0.42794 -0.05925,-0.41478 -0.07242,-0.38844 -0.09217,-0.37527 -0.09876,-0.35552 -0.118507,-0.33577 -0.125091,-0.32261 -0.138259,-0.29627 -0.151426,-0.28968 -0.164594,-0.26335 -0.171177,-0.25018 -0.177761,-0.23702 -0.190929,-0.21726 -0.197513,-0.2041 -0.204096,-0.19093 -0.204096,-0.17117 -0.217264,-0.15801 -0.223847,-0.14485 -0.223847,-0.13167 -0.230432,-0.11851 -0.230431,-0.10534 -0.237015,-0.0922 -0.230431,-0.079 -0.237015,-0.0724 -0.243599,-0.0592 -0.237014,-0.0395 -0.237015,-0.0395 -0.230432,-0.0263 -0.230431,-0.0132 -0.230431,0 -0.03292,0.71763 c 3.252372,0 3.252372,4.29919 3.252372,6.85368 0,1.21141 0,3.11411 0.05925,3.66715 l 0,0 c -2.877098,2.53474 -5.411841,2.89026 -6.715423,2.89026 -1.975125,0 -2.956103,-1.48134 -2.956103,-3.57497 0,-1.60644 0.855887,-5.14849 1.902703,-6.82076 1.534013,-2.39649 3.318209,-3.01536 4.457197,-3.01536 l 0.03292,-0.71763 c -4.490116,0 -8.815638,4.68763 -8.815638,9.30942 0,3.05486 1.961957,5.54352 5.3065,5.54352 2.067297,0 4.430863,-0.75055 6.91952,-2.75859 0.434527,1.73811 1.514262,2.75859 2.989021,2.75859 1.73811,0 2.752007,-1.80395 2.752007,-2.32407 0,-0.23701 -0.190929,-0.32918 -0.388441,-0.32918 -0.237015,0 -0.329188,0.0922 -0.434528,0.32918 -0.585953,1.59985 -1.764444,1.59985 -1.830282,1.59985 -1.013897,0 -1.013897,-2.56107 -1.013897,-3.33796 0,-0.69129 0,-0.76371 0.329187,-1.15215 3.081195,-3.87125 3.772488,-7.67665 3.772488,-7.70957 0,-0.0724 -0.0395,-0.32919 -0.401609,-0.32919 -0.329187,0 -0.329187,0.0922 -0.493781,0.6913 -0.585953,2.06729 -1.665688,4.55595 -3.206285,6.49157 z"
     id="path8761" />
  <path
     id="path8829"
     d="m 213.13599,226.92685 0,-0.20409 -0.007,-0.22385 -0.0132,-0.23701 -0.0132,-0.2436 -0.0197,-0.25677 -0.0263,-0.25677 -0.0263,-0.26993 -0.0395,-0.26993 -0.0461,-0.27652 -0.0461,-0.2831 -0.0593,-0.27652 -0.0658,-0.2831 -0.079,-0.27652 -0.079,-0.27651 -0.0922,-0.26994 -0.10534,-0.26993 -0.11192,-0.26335 -0.11851,-0.25018 -0.13167,-0.2436 -0.14485,-0.23702 -0.15142,-0.22385 -0.1646,-0.21068 -0.18434,-0.19751 -0.19093,-0.17776 -0.2041,-0.16459 -0.10534,-0.079 -0.11192,-0.0658 -0.11192,-0.0658 -0.11851,-0.0658 -0.11851,-0.0527 -0.12509,-0.0527 -0.12509,-0.0461 -0.13168,-0.0395 -0.13825,-0.0329 -0.13826,-0.0329 -0.14485,-0.0197 -0.14484,-0.0132 -0.15142,-0.0132 -0.15143,0 -0.0329,0.71763 c 1.60644,0 1.79736,2.10021 1.79736,3.97 0,1.60643 -0.25676,3.28529 -1.04681,6.53107 l -6.85368,0 c 0.55962,-2.1068 1.21799,-4.72713 2.52157,-7.05777 0.89539,-1.59985 2.10022,-3.4433 3.58156,-3.4433 l 0.0329,-0.71763 c -4.55595,0 -9.61227,9.24358 -9.61227,16.75564 0,3.08777 0.94806,6.72859 3.94366,6.72859 l 0,-0.72422 c -1.0929,0 -1.78419,-0.95464 -1.78419,-3.99633 0,-1.38259 0.19751,-3.28529 1.0534,-6.49158 l 6.82734,0 c -0.35552,1.5011 -1.04681,4.28602 -2.30431,6.65617 -1.13899,2.23189 -2.38332,3.83174 -3.79224,3.83174 l 0,0.72422 c 4.61521,0 9.60569,-9.41476 9.60569,-16.76223 z"
     inkscape:connector-curvature="0"
     style="font-style:normal;font-variant:normal;font-weight:normal;font-stretch:normal;letter-spacing:normal;word-spacing:normal;text-anchor:start;fill:#000000;fill-opacity:1;fill-rule:evenodd;stroke:#000000;stroke-width:0;stroke-linecap:butt;stroke-linejoin:miter;stroke-miterlimit:10.43299961;stroke-dasharray:none;stroke-dashoffset:0;stroke-opacity:1" />
  <ellipse
     style="fill:none;fill-opacity:1;stroke:#000000;stroke-width:2.87877774;stroke-miterlimit:4;stroke-dasharray:none;stroke-opacity:1"
     id="path3435-3"
     cx="206.36111"
     cy="180.13341"
     rx="35.943928"
     ry="34.23204" />
  <path
     style="fill:#000000;fill-rule:evenodd;stroke:#000000;stroke-width:2;stroke-linecap:butt;stroke-linejoin:miter;stroke-miterlimit:4;stroke-dasharray:none;stroke-opacity:1;marker-end:url(#Arrow2Mend)"
     d="m 242.86711,180.15263 91.9643,0"
     id="path4264-2"
     inkscape:connector-curvature="0"
     sodipodi:nodetypes="cc" />
  <ellipse
     style="fill:none;fill-opacity:1;stroke:#000000;stroke-width:2.87877774;stroke-miterlimit:4;stroke-dasharray:none;stroke-opacity:1"
     id="path3435-6"
     cx="375.3389"
     cy="180.13341"
     rx="35.943928"
     ry="34.23204" />
  <path
     style="fill:#000000;fill-rule:evenodd;stroke:#000000;stroke-width:2;stroke-linecap:butt;stroke-linejoin:miter;stroke-miterlimit:4;stroke-dasharray:none;stroke-opacity:1;marker-end:url(#marker5447)"
     d="m 411.83893,180.15263 91.9643,0"
     id="path4264-2-0"
     inkscape:connector-curvature="0"
     sodipodi:nodetypes="cc" />
  <path
     id="path8983"
     d="m 371.33269,234.66043 0.16459,-0.17776 0.15801,-0.1646 0.15801,-0.16459 0.15143,-0.15801 0.14484,-0.15143 0.14484,-0.14484 0.13826,-0.14484 0.13167,-0.13826 0.13168,-0.13167 0.13167,-0.1251 0.1251,-0.12509 0.12509,-0.12509 0.1185,-0.11192 0.1251,-0.11851 0.23043,-0.21726 0.22384,-0.21068 0.21727,-0.19752 0.21726,-0.19092 0.21068,-0.19093 0.42795,-0.36869 0.21726,-0.19093 0.21726,-0.18435 c 0,-0.0329 2.0278,-1.77102 3.21287,-2.9561 3.11411,-3.05486 3.83833,-4.62837 3.83833,-4.74688 0,-0.32919 -0.30286,-0.32919 -0.36211,-0.32919 -0.23043,0 -0.32919,0.0592 -0.49378,0.35552 -0.98098,1.57352 -1.66569,2.10022 -2.46232,2.10022 -0.79005,0 -1.17849,-0.49378 -1.67227,-1.04682 -0.61888,-0.76371 -1.17191,-1.40892 -2.26481,-1.40892 -2.45574,0 -3.96342,3.04169 -3.96342,3.73299 0,0.16459 0.0922,0.35552 0.39503,0.35552 0.29626,0 0.35552,-0.1646 0.42136,-0.35552 0.62545,-1.51427 2.52815,-1.54718 2.78492,-1.54718 0.69129,0 1.31675,0.23701 2.0673,0.49378 1.31675,0.49378 1.67885,0.49378 2.53474,0.49378 -1.18507,1.40892 -3.94366,3.77907 -4.55595,4.29919 l -2.95611,2.752 c -2.23189,2.19897 -3.38404,4.06876 -3.38404,4.29919 0,0.32919 0.32918,0.32919 0.38844,0.32919 0.26993,0 0.32919,-0.0658 0.5267,-0.42136 0.76371,-1.15216 1.73811,-2.04097 2.79151,-2.04097 0.75713,0 1.08632,0.30286 1.9027,1.24433 0.5662,0.6913 1.15216,1.218 2.09363,1.218 3.25237,0 5.15508,-4.16752 5.15508,-5.04974 0,-0.16459 -0.13168,-0.32919 -0.38844,-0.32919 -0.30286,0 -0.36211,0.19093 -0.46745,0.42795 -0.75055,2.13313 -2.84418,2.74542 -3.93708,2.74542 -0.64521,0 -1.24433,-0.19093 -1.93562,-0.42136 -1.10607,-0.42136 -1.59985,-0.55303 -2.29115,-0.55303 -0.0658,0 -0.58595,0 -0.8888,0.0922 z"
     inkscape:connector-curvature="0"
     style="font-style:normal;font-variant:normal;font-weight:normal;font-stretch:normal;letter-spacing:normal;word-spacing:normal;text-anchor:start;fill:#000000;fill-opacity:1;fill-rule:evenodd;stroke:#000000;stroke-width:0;stroke-linecap:butt;stroke-linejoin:miter;stroke-miterlimit:10.43299961;stroke-dasharray:none;stroke-dashoffset:0;stroke-opacity:1" />
  <rect
     style="fill:none;fill-opacity:1;stroke:#000000;stroke-width:2.37605762;stroke-miterlimit:4;stroke-dasharray:none;stroke-opacity:1"
     id="rect9035"
     width="593.59363"
     height="148.11636"
     x="304.95743"
     y="106.07523" />
  <rect
     style="fill:none;fill-opacity:1;stroke:#000000;stroke-width:2.40165114;stroke-miterlimit:4;stroke-dasharray:none;stroke-opacity:1"
     id="rect9063"
     width="804.68994"
     height="193.54764"
     x="124.87976"
     y="88.410347" />
  <path
     style="fill:#000000;fill-rule:evenodd;stroke:#000000;stroke-width:2;stroke-linecap:butt;stroke-linejoin:miter;stroke-miterlimit:4;stroke-dasharray:none;stroke-opacity:1;marker-end:url(#marker5443)"
     d="M 720.05411,57.525967 835.55394,142.76073"
     id="path4264-6"
     inkscape:connector-curvature="0"
     sodipodi:nodetypes="cc" />
  <g
     id="g6775"
     transform="translate(5.9604645e-7,0.91067946)">
    <ellipse
       ry="34.23204"
       rx="35.943928"
       cy="34.76075"
       cx="691.49353"
       id="path3435-9"
       style="fill:none;fill-opacity:1;stroke:#000000;stroke-width:2.87877774;stroke-miterlimit:4;stroke-dasharray:none;stroke-opacity:1" />
    <g
       ns0:preamble="/home/eric/.config/inkscape/extensions/preamble.ini"
       ns0:text="$\\pi$"
       word-spacing="normal"
       letter-spacing="normal"
       font-size-adjust="none"
       font-stretch="normal"
       font-weight="normal"
       font-variant="normal"
       font-style="normal"
       stroke-miterlimit="10.433"
       xml:space="preserve"
       transform="matrix(5,0,0,-5,-496.93522,3335.816)"
       id="content"
       style="font-style:normal;font-variant:normal;font-weight:normal;font-stretch:normal;letter-spacing:normal;word-spacing:normal;text-anchor:start;fill:none;fill-opacity:1;fill-rule:evenodd;stroke:#000000;stroke-linecap:butt;stroke-linejoin:miter;stroke-miterlimit:10.43299961;stroke-dasharray:none;stroke-dashoffset:0;stroke-opacity:1"><g
         ns0:preamble="/home/eric/.config/inkscape/extensions/preamble.ini"
         ns0:text="$\\mu$"
         word-spacing="normal"
         letter-spacing="normal"
         font-size-adjust="none"
         font-stretch="normal"
         font-weight="normal"
         font-variant="normal"
         font-style="normal"
         stroke-miterlimit="10.433"
         xml:space="preserve"
         transform="matrix(0.67519448,0,0,0.67519448,74.058797,215.69001)"
         id="g5603"
         style="font-style:normal;font-variant:normal;font-weight:normal;font-stretch:normal;letter-spacing:normal;word-spacing:normal;text-anchor:start;fill:none;fill-opacity:1;fill-rule:evenodd;stroke:#000000;stroke-linecap:butt;stroke-linejoin:miter;stroke-miterlimit:10.43299961;stroke-dasharray:none;stroke-dashoffset:0;stroke-opacity:1"><path
           id="path5605"
           d="m 225.73,660.72 0,0.02 0.01,0.02 0.01,0.02 0,0.03 0.01,0.02 0,0.02 0.01,0.05 0.02,0.05 0.01,0.05 0.01,0.05 0.01,0.05 0.01,0.02 0,0.03 0.01,0.02 0.01,0.02 0,0.02 0,0.02 0.01,0.02 0,0.02 0.01,0.01 0,0.02 0,0.01 0,0.01 0.01,0.02 0,0 0,0.01 0,0.01 0,0 c 0,0.17 -0.12,0.27 -0.29,0.27 -0.03,0 -0.31,-0.01 -0.4,-0.36 l -1.43,-5.75 c -0.03,-0.12 -0.03,-0.14 -0.03,-0.16 0,-0.15 0.11,-0.27 0.28,-0.27 0.21,0 0.33,0.18 0.35,0.21 0.04,0.09 0.17,0.6 0.54,2.13 0.32,-0.27 0.77,-0.3 0.97,-0.3 0.7,0 1.08,0.44 1.32,0.72 0.09,-0.45 0.46,-0.72 0.9,-0.72 0.35,0 0.57,0.22 0.73,0.54 0.17,0.36 0.3,0.97 0.3,0.99 0,0.1 -0.09,0.1 -0.12,0.1 -0.1,0 -0.11,-0.04 -0.14,-0.18 -0.16,-0.65 -0.34,-1.24 -0.75,-1.24 -0.27,0 -0.3,0.26 -0.3,0.46 0,0.22 0.12,0.69 0.2,1.03 l 0.28,1.08 c 0.03,0.15 0.13,0.52 0.17,0.67 0.05,0.23 0.15,0.61 0.15,0.67 0,0.18 -0.14,0.27 -0.29,0.27 -0.05,0 -0.31,-0.01 -0.39,-0.35 l -0.47,-1.86 c -0.12,-0.5 -0.23,-0.91 -0.26,-1.01 -0.01,-0.05 -0.49,-0.96 -1.29,-0.96 -0.5,0 -0.74,0.33 -0.74,0.87 0,0.29 0.07,0.57 0.14,0.84 z"
           inkscape:connector-curvature="0"
           style="fill:#000000;stroke-width:0" /></g></g>  </g>
  <path
     style="fill:#000000;fill-rule:evenodd;stroke:#000000;stroke-width:2;stroke-linecap:butt;stroke-linejoin:miter;stroke-miterlimit:4;stroke-dasharray:none;stroke-opacity:1;marker-end:url(#marker5443-7)"
     d="M 674.89427,67.726859 659.78713,141.59879"
     id="path4264-6-3"
     inkscape:connector-curvature="0"
     sodipodi:nodetypes="cc" />
  <path
     style="fill:#000000;fill-rule:evenodd;stroke:#000000;stroke-width:2;stroke-linecap:butt;stroke-linejoin:miter;stroke-miterlimit:4;stroke-dasharray:none;stroke-opacity:1;marker-end:url(#marker5443-5)"
     d="M 666.51917,59.841706 547.39674,142.78619"
     id="path4264-6-2"
     inkscape:connector-curvature="0"
     sodipodi:nodetypes="cc" />
  <g
     id="g6754"
     transform="translate(5.9604645e-7,0.91067946)">
    <ellipse
       ry="34.23204"
       rx="35.943928"
       cy="179.22273"
       cx="544.31671"
       id="path3435-7"
       style="fill:none;fill-opacity:1;stroke:#000000;stroke-width:2.87877774;stroke-miterlimit:4;stroke-dasharray:none;stroke-opacity:1" />
    <ellipse
       ry="34.23204"
       rx="35.943928"
       cy="179.22273"
       cx="658.84009"
       id="path3435-7-7"
       style="fill:none;fill-opacity:1;stroke:#000000;stroke-width:2.87877774;stroke-miterlimit:4;stroke-dasharray:none;stroke-opacity:1" />
    <ellipse
       ry="34.23204"
       rx="35.943928"
       cy="179.22273"
       cx="838.67035"
       id="path3435-7-5"
       style="fill:none;fill-opacity:1;stroke:#000000;stroke-width:2.87877774;stroke-miterlimit:4;stroke-dasharray:none;stroke-opacity:1" />
    <g
       style="font-style:normal;font-variant:normal;font-weight:normal;font-stretch:normal;letter-spacing:normal;word-spacing:normal;text-anchor:start;fill:none;fill-opacity:1;fill-rule:evenodd;stroke:#000000;stroke-linecap:butt;stroke-linejoin:miter;stroke-miterlimit:10.43299961;stroke-dasharray:none;stroke-dashoffset:0;stroke-opacity:1"
       id="g5047"
       transform="matrix(3.6305333,0,0,-3.6305333,-85.848143,2567.2423)"
       xml:space="preserve"
       stroke-miterlimit="10.433"
       font-style="normal"
       font-variant="normal"
       font-weight="normal"
       font-stretch="normal"
       font-size-adjust="none"
       letter-spacing="normal"
       word-spacing="normal"
       ns0:text="$\\dots$"
       ns0:preamble="/home/eric/.config/inkscape/extensions/preamble.ini"><path
         style="fill:#000000;stroke-width:0"
         inkscape:connector-curvature="0"
         d="m 225.34,657.76 0,0.03 0,0.03 0,0.02 -0.01,0.03 0,0.02 -0.01,0.03 -0.01,0.02 -0.01,0.03 -0.01,0.02 -0.01,0.02 -0.02,0.02 -0.01,0.03 -0.01,0.02 -0.02,0.02 -0.02,0.01 -0.01,0.02 -0.02,0.02 -0.02,0.02 -0.02,0.01 -0.02,0.02 -0.02,0.01 -0.03,0.01 -0.02,0.02 -0.02,0.01 -0.03,0.01 -0.02,0 -0.02,0.01 -0.03,0.01 -0.03,0 -0.02,0.01 -0.03,0 -0.02,0 c -0.29,0 -0.53,-0.24 -0.53,-0.53 0,-0.29 0.24,-0.53 0.53,-0.53 0.28,0 0.52,0.24 0.52,0.53 z"
         id="path5049" /><path
         style="fill:#000000;stroke-width:0"
         inkscape:connector-curvature="0"
         d="m 229.77,657.76 0,0.03 0,0.03 0,0.02 -0.01,0.03 0,0.02 -0.01,0.03 -0.01,0.02 -0.01,0.03 -0.01,0.02 -0.01,0.02 -0.01,0.02 -0.02,0.03 -0.01,0.02 -0.02,0.02 -0.01,0.01 -0.02,0.02 -0.02,0.02 -0.02,0.02 -0.02,0.01 -0.02,0.02 -0.02,0.01 -0.02,0.01 -0.03,0.02 -0.02,0.01 -0.02,0.01 -0.03,0 -0.02,0.01 -0.03,0.01 -0.02,0 -0.03,0.01 -0.03,0 -0.02,0 c -0.29,0 -0.53,-0.24 -0.53,-0.53 0,-0.29 0.24,-0.53 0.53,-0.53 0.29,0 0.52,0.24 0.52,0.53 z"
         id="path5051" /><path
         style="fill:#000000;stroke-width:0"
         inkscape:connector-curvature="0"
         d="m 234.2,657.76 -0.01,0.03 0,0.03 0,0.02 -0.01,0.03 0,0.02 -0.01,0.03 -0.01,0.02 -0.01,0.03 -0.01,0.02 -0.01,0.02 -0.01,0.02 -0.02,0.03 -0.01,0.02 -0.02,0.02 -0.01,0.01 -0.02,0.02 -0.02,0.02 -0.02,0.02 -0.02,0.01 -0.02,0.02 -0.02,0.01 -0.02,0.01 -0.02,0.02 -0.03,0.01 -0.02,0.01 -0.03,0 -0.02,0.01 -0.03,0.01 -0.02,0 -0.03,0.01 -0.03,0 -0.02,0 c -0.29,0 -0.53,-0.24 -0.53,-0.53 0,-0.29 0.24,-0.53 0.53,-0.53 0.29,0 0.53,0.24 0.53,0.53 z"
         id="path5053" /></g>    <g
       style="font-style:normal;font-variant:normal;font-weight:normal;font-stretch:normal;letter-spacing:normal;word-spacing:normal;text-anchor:start;fill:none;fill-opacity:1;fill-rule:evenodd;stroke:#000000;stroke-linecap:butt;stroke-linejoin:miter;stroke-miterlimit:10.43299961;stroke-dasharray:none;stroke-dashoffset:0;stroke-opacity:1"
       id="g6154"
       transform="matrix(3,0,0,-3,-142.05329,2206.8746)"
       xml:space="preserve"
       stroke-miterlimit="10.433"
       font-style="normal"
       font-variant="normal"
       font-weight="normal"
       font-stretch="normal"
       font-size-adjust="none"
       letter-spacing="normal"
       word-spacing="normal"
       ns0:text="$w_1$"
       ns0:preamble="/home/eric/.config/inkscape/extensions/preamble.ini"><path
         style="fill:#000000;stroke-width:0"
         inkscape:connector-curvature="0"
         d="m 228.03,660.6 0,0.02 0.01,0.03 0,0.02 0.01,0.02 0.01,0.02 0,0.03 0.01,0.05 0.02,0.05 0.01,0.05 0.01,0.05 0.01,0.05 0.01,0.02 0,0.02 0.01,0.02 0,0.03 0.01,0.02 0,0.02 0.01,0.02 0,0.01 0.01,0.02 0,0.02 0,0.01 0,0.01 0.01,0.01 0,0.01 0,0.01 0,0.01 c 0,0.18 -0.14,0.27 -0.29,0.27 -0.12,0 -0.3,-0.08 -0.37,-0.28 -0.03,-0.07 -0.5,-1.97 -0.57,-2.23 -0.07,-0.29 -0.09,-0.47 -0.09,-0.65 0,-0.11 0,-0.13 0.01,-0.18 -0.22,-0.53 -0.52,-0.84 -0.91,-0.84 -0.8,0 -0.8,0.74 -0.8,0.91 0,0.32 0.05,0.7 0.52,1.92 0.11,0.3 0.17,0.44 0.17,0.64 0,0.45 -0.33,0.82 -0.82,0.82 -0.94,0 -1.31,-1.45 -1.31,-1.53 0,-0.1 0.1,-0.1 0.12,-0.1 0.1,0 0.11,0.02 0.16,0.17 0.27,0.93 0.66,1.24 1,1.24 0.09,0 0.25,-0.01 0.25,-0.33 0,-0.25 -0.11,-0.53 -0.18,-0.7 -0.43,-1.17 -0.55,-1.62 -0.55,-2 0,-0.91 0.66,-1.25 1.41,-1.25 0.17,0 0.64,0 1.03,0.69 0.26,-0.64 0.95,-0.69 1.25,-0.69 0.74,0 1.18,0.62 1.44,1.22 0.34,0.77 0.66,2.1 0.66,2.58 0,0.55 -0.27,0.7 -0.44,0.7 -0.25,0 -0.5,-0.26 -0.5,-0.48 0,-0.13 0.06,-0.19 0.15,-0.27 0.11,-0.11 0.36,-0.37 0.36,-0.84 0,-0.34 -0.29,-1.32 -0.55,-1.82 -0.26,-0.53 -0.6,-0.88 -1.09,-0.88 -0.47,0 -0.74,0.3 -0.74,0.87 0,0.28 0.07,0.58 0.11,0.72 z"
         id="path6156" /><path
         style="fill:#000000;stroke-width:0"
         inkscape:connector-curvature="0"
         d="m 232.9,660.16 0,0.01 0,0.01 0,0.01 0,0.01 0,0 0,0.01 0,0.01 0,0.01 0,0 0,0.01 0,0.01 0,0 -0.01,0.01 0,0 0,0.01 0,0 0,0.01 0,0 0,0.01 0,0.01 -0.01,0.01 0,0 0,0.01 -0.01,0.01 0,0 -0.01,0.01 -0.01,0 0,0 -0.01,0.01 -0.01,0 -0.01,0 -0.01,0 0,0 -0.01,0 0,0 -0.01,0.01 0,0 -0.01,0 -0.01,0 0,0 -0.01,0 -0.01,0 0,0 -0.01,0 -0.01,0 -0.01,0 0,0 -0.01,0 -0.01,0 -0.01,0 c -0.45,-0.44 -1.08,-0.45 -1.37,-0.45 l 0,-0.25 c 0.17,0 0.63,0 1.01,0.2 l 0,-3.55 c 0,-0.23 0,-0.32 -0.69,-0.32 l -0.27,0 0,-0.25 c 0.13,0.01 0.98,0.03 1.24,0.03 0.22,0 1.1,-0.02 1.25,-0.03 l 0,0.25 -0.26,0 c -0.7,0 -0.7,0.09 -0.7,0.32 z"
         id="path6158" /></g>    <g
       style="font-style:normal;font-variant:normal;font-weight:normal;font-stretch:normal;letter-spacing:normal;word-spacing:normal;text-anchor:start;fill:none;fill-opacity:1;fill-rule:evenodd;stroke:#000000;stroke-linecap:butt;stroke-linejoin:miter;stroke-miterlimit:10.43299961;stroke-dasharray:none;stroke-dashoffset:0;stroke-opacity:1"
       ns0:preamble="/home/eric/.config/inkscape/extensions/preamble.ini"
       ns0:text="$w_2$"
       word-spacing="normal"
       letter-spacing="normal"
       font-size-adjust="none"
       font-stretch="normal"
       font-weight="normal"
       font-variant="normal"
       font-style="normal"
       stroke-miterlimit="10.433"
       xml:space="preserve"
       transform="matrix(3,0,0,-3,-27.859913,2206.8746)"
       id="g6374"><path
         style="fill:#000000;stroke-width:0"
         inkscape:connector-curvature="0"
         id="path6376"
         d="m 228.03,660.6 0,0.02 0.01,0.03 0,0.02 0.01,0.02 0.01,0.02 0,0.03 0.01,0.05 0.02,0.05 0.01,0.05 0.01,0.05 0.01,0.05 0.01,0.02 0,0.02 0.01,0.02 0,0.03 0.01,0.02 0,0.02 0.01,0.02 0,0.01 0.01,0.02 0,0.02 0,0.01 0,0.01 0.01,0.01 0,0.01 0,0.01 0,0.01 c 0,0.18 -0.14,0.27 -0.29,0.27 -0.12,0 -0.3,-0.08 -0.37,-0.28 -0.03,-0.07 -0.5,-1.97 -0.57,-2.23 -0.07,-0.29 -0.09,-0.47 -0.09,-0.65 0,-0.11 0,-0.13 0.01,-0.18 -0.22,-0.53 -0.52,-0.84 -0.91,-0.84 -0.8,0 -0.8,0.74 -0.8,0.91 0,0.32 0.05,0.7 0.52,1.92 0.11,0.3 0.17,0.44 0.17,0.64 0,0.45 -0.33,0.82 -0.82,0.82 -0.94,0 -1.31,-1.45 -1.31,-1.53 0,-0.1 0.1,-0.1 0.12,-0.1 0.1,0 0.11,0.02 0.16,0.17 0.27,0.93 0.66,1.24 1,1.24 0.09,0 0.25,-0.01 0.25,-0.33 0,-0.25 -0.11,-0.53 -0.18,-0.7 -0.43,-1.17 -0.55,-1.62 -0.55,-2 0,-0.91 0.66,-1.25 1.41,-1.25 0.17,0 0.64,0 1.03,0.69 0.26,-0.64 0.95,-0.69 1.25,-0.69 0.74,0 1.18,0.62 1.44,1.22 0.34,0.77 0.66,2.1 0.66,2.58 0,0.55 -0.27,0.7 -0.44,0.7 -0.25,0 -0.5,-0.26 -0.5,-0.48 0,-0.13 0.06,-0.19 0.15,-0.27 0.11,-0.11 0.36,-0.37 0.36,-0.84 0,-0.34 -0.29,-1.32 -0.55,-1.82 -0.26,-0.53 -0.6,-0.88 -1.09,-0.88 -0.47,0 -0.74,0.3 -0.74,0.87 0,0.28 0.07,0.58 0.11,0.72 z" /><path
         style="fill:#000000;stroke-width:0"
         inkscape:connector-curvature="0"
         id="path6378"
         d="m 234.08,657.01 -0.23,0 c -0.03,-0.16 -0.09,-0.57 -0.19,-0.64 -0.05,-0.04 -0.59,-0.04 -0.68,-0.04 l -1.29,0 c 0.74,0.65 0.98,0.84 1.4,1.17 0.51,0.41 0.99,0.84 0.99,1.5 0,0.84 -0.74,1.36 -1.63,1.36 -0.86,0 -1.45,-0.61 -1.45,-1.25 0,-0.35 0.3,-0.39 0.37,-0.39 0.17,0 0.37,0.12 0.37,0.37 0,0.13 -0.05,0.37 -0.41,0.37 0.22,0.5 0.69,0.65 1.02,0.65 0.69,0 1.06,-0.54 1.06,-1.11 0,-0.6 -0.43,-1.08 -0.66,-1.33 l -1.68,-1.66 C 231,655.95 231,655.94 231,655.74 l 2.87,0 z" /></g>    <g
       id="g6569"
       transform="matrix(3,0,0,-3,150.36535,2206.8746)"
       xml:space="preserve"
       stroke-miterlimit="10.433"
       font-style="normal"
       font-variant="normal"
       font-weight="normal"
       font-stretch="normal"
       font-size-adjust="none"
       letter-spacing="normal"
       word-spacing="normal"
       ns0:text="$w_n$"
       ns0:preamble="/home/eric/.config/inkscape/extensions/preamble.ini"
       style="font-style:normal;font-variant:normal;font-weight:normal;font-stretch:normal;letter-spacing:normal;word-spacing:normal;text-anchor:start;fill:none;fill-opacity:1;fill-rule:evenodd;stroke:#000000;stroke-linecap:butt;stroke-linejoin:miter;stroke-miterlimit:10.43299961;stroke-dasharray:none;stroke-dashoffset:0;stroke-opacity:1"><path
         style="fill:#000000;stroke-width:0"
         inkscape:connector-curvature="0"
         d="m 228.03,660.6 0,0.02 0.01,0.03 0,0.02 0.01,0.02 0.01,0.02 0,0.03 0.01,0.05 0.02,0.05 0.01,0.05 0.01,0.05 0.01,0.05 0.01,0.02 0,0.02 0.01,0.02 0,0.03 0.01,0.02 0,0.02 0.01,0.02 0,0.01 0.01,0.02 0,0.02 0,0.01 0,0.01 0.01,0.01 0,0.01 0,0.01 0,0.01 c 0,0.18 -0.14,0.27 -0.29,0.27 -0.12,0 -0.3,-0.08 -0.37,-0.28 -0.03,-0.07 -0.5,-1.97 -0.57,-2.23 -0.07,-0.29 -0.09,-0.47 -0.09,-0.65 0,-0.11 0,-0.13 0.01,-0.18 -0.22,-0.53 -0.52,-0.84 -0.91,-0.84 -0.8,0 -0.8,0.74 -0.8,0.91 0,0.32 0.05,0.7 0.52,1.92 0.11,0.3 0.17,0.44 0.17,0.64 0,0.45 -0.33,0.82 -0.82,0.82 -0.94,0 -1.31,-1.45 -1.31,-1.53 0,-0.1 0.1,-0.1 0.12,-0.1 0.1,0 0.11,0.02 0.16,0.17 0.27,0.93 0.66,1.24 1,1.24 0.09,0 0.25,-0.01 0.25,-0.33 0,-0.25 -0.11,-0.53 -0.18,-0.7 -0.43,-1.17 -0.55,-1.62 -0.55,-2 0,-0.91 0.66,-1.25 1.41,-1.25 0.17,0 0.64,0 1.03,0.69 0.26,-0.64 0.95,-0.69 1.25,-0.69 0.74,0 1.18,0.62 1.44,1.22 0.34,0.77 0.66,2.1 0.66,2.58 0,0.55 -0.27,0.7 -0.44,0.7 -0.25,0 -0.5,-0.26 -0.5,-0.48 0,-0.13 0.06,-0.19 0.15,-0.27 0.11,-0.11 0.36,-0.37 0.36,-0.84 0,-0.34 -0.29,-1.32 -0.55,-1.82 -0.26,-0.53 -0.6,-0.88 -1.09,-0.88 -0.47,0 -0.74,0.3 -0.74,0.87 0,0.28 0.07,0.58 0.11,0.72 z"
         id="path6571" /><path
         style="fill:#000000;stroke-width:0"
         inkscape:connector-curvature="0"
         d="m 231.41,656.18 0,-0.01 0,-0.01 0,-0.01 -0.01,-0.01 0,-0.01 0,-0.01 0,-0.01 -0.01,-0.01 0,-0.02 -0.01,-0.03 -0.01,-0.02 0,-0.02 0,-0.01 -0.01,-0.01 0,-0.01 0,-0.01 0,-0.01 0,-0.01 -0.01,-0.01 0,-0.01 0,0 0,-0.01 0,-0.01 0,0 0,-0.01 0,0 0,0 0,0 0,0 0,-0.01 c 0,-0.15 0.12,-0.22 0.23,-0.22 0.13,0 0.24,0.09 0.27,0.15 0.04,0.07 0.09,0.29 0.13,0.44 0.03,0.13 0.11,0.45 0.15,0.62 0.04,0.15 0.09,0.31 0.12,0.47 0.08,0.28 0.09,0.34 0.29,0.62 0.2,0.28 0.53,0.64 1.05,0.64 0.4,0 0.41,-0.35 0.41,-0.48 0,-0.42 -0.3,-1.19 -0.41,-1.48 -0.08,-0.2 -0.11,-0.26 -0.11,-0.38 0,-0.37 0.31,-0.6 0.67,-0.6 0.69,0 1,0.96 1,1.06 0,0.1 -0.09,0.1 -0.11,0.1 -0.1,0 -0.11,-0.05 -0.14,-0.12 -0.16,-0.56 -0.46,-0.84 -0.73,-0.84 -0.15,0 -0.18,0.09 -0.18,0.24 0,0.16 0.04,0.25 0.16,0.56 0.09,0.22 0.37,0.95 0.37,1.35 0,0.67 -0.53,0.79 -0.9,0.79 -0.58,0 -0.97,-0.36 -1.18,-0.64 -0.05,0.49 -0.46,0.64 -0.75,0.64 -0.3,0 -0.46,-0.22 -0.55,-0.38 -0.15,-0.26 -0.25,-0.65 -0.25,-0.69 0,-0.09 0.1,-0.09 0.12,-0.09 0.1,0 0.11,0.02 0.15,0.21 0.11,0.41 0.24,0.75 0.51,0.75 0.18,0 0.23,-0.15 0.23,-0.34 0,-0.13 -0.06,-0.39 -0.11,-0.57 -0.05,-0.19 -0.12,-0.48 -0.15,-0.63 z"
         id="path6573" /></g>    <path
       sodipodi:nodetypes="cc"
       inkscape:connector-curvature="0"
       id="path4264-2-0-0"
       d="m 580.47029,179.24195 38.03573,0"
       style="fill:#000000;fill-rule:evenodd;stroke:#000000;stroke-width:2;stroke-linecap:butt;stroke-linejoin:miter;stroke-miterlimit:4;stroke-dasharray:none;stroke-opacity:1;marker-end:url(#marker5447-3)" />
    <path
       sodipodi:nodetypes="cc"
       inkscape:connector-curvature="0"
       id="path4264-2-0-0-7"
       d="m 695.8631,180.22272 21.36821,0"
       style="fill:#000000;fill-rule:evenodd;stroke:#000000;stroke-width:2;stroke-linecap:butt;stroke-linejoin:miter;stroke-miterlimit:4;stroke-dasharray:none;stroke-opacity:1" />
    <path
       sodipodi:nodetypes="cc"
       inkscape:connector-curvature="0"
       id="path4264-2-0-0-0"
       d="m 775.63562,179.24195 22.50463,0"
       style="fill:#000000;fill-rule:evenodd;stroke:#000000;stroke-width:2;stroke-linecap:butt;stroke-linejoin:miter;stroke-miterlimit:4;stroke-dasharray:none;stroke-opacity:1;marker-end:url(#marker5447-3-9)" />
  </g>
</svg>
